<?xml version="1.0" encoding="UTF-8"?>
<svg xmlns="http://www.w3.org/2000/svg" xmlns:xlink="http://www.w3.org/1999/xlink" width="400px" height="400px" viewBox="0 0 400 400" version="1.1">
<g id="surface1">
<path style=" stroke:none;fill-rule:nonzero;fill:rgb(0%,0%,0%);fill-opacity:1;" d="M 53.265625 44.652344 C 48.613281 46.121094 45.019531 49.265625 42.816406 53.671875 L 41.429688 56.53125 L 41.429688 343.46875 L 42.777344 346.246094 C 44.53125 349.753906 47.386719 352.613281 50.898438 354.367188 L 53.671875 355.714844 L 346.328125 355.714844 L 349.144531 354.328125 C 352.734375 352.570312 355.386719 349.917969 357.183594 346.328125 L 358.570312 343.46875 L 358.570312 56.53125 L 357.222656 53.753906 C 355.511719 50.285156 352.53125 47.304688 349.019531 45.59375 L 346.328125 44.285156 L 200.613281 44.203125 C 83.714844 44.164062 54.570312 44.246094 53.265625 44.652344 Z M 346.203125 51.347656 C 348.367188 52.40625 350.777344 54.898438 351.753906 57.101562 C 352.40625 58.449219 352.449219 68.121094 352.570312 180.695312 L 352.652344 302.816406 L 325.0625 275.183594 C 294.652344 244.695312 283.019531 233.511719 266.980469 219.265625 C 259.917969 212.980469 257.304688 211.101562 254.816406 210.613281 C 249.222656 209.429688 241.917969 213.0625 233.671875 221.101562 C 229.183594 225.46875 222.9375 232.613281 219.796875 236.855469 C 218.203125 239.019531 216.855469 240.777344 216.734375 240.777344 C 216.613281 240.777344 215.265625 239.265625 213.714844 237.429688 C 208 230.613281 196.203125 217.960938 189.144531 211.019531 C 178.367188 200.488281 169.550781 193.796875 164.40625 192.203125 C 162.082031 191.46875 161.386719 191.429688 159.347656 191.796875 C 153.917969 192.816406 146.898438 197.144531 136.9375 205.671875 C 127.796875 213.511719 108.570312 233.183594 93.835938 249.796875 C 81.632812 263.550781 62.488281 286.328125 52.488281 298.898438 C 50.039062 301.960938 47.878906 304.488281 47.671875 304.488281 C 47.511719 304.488281 47.386719 249.144531 47.429688 181.511719 C 47.550781 68.203125 47.59375 58.449219 48.246094 57.101562 C 49.0625 55.222656 51.632812 52.367188 53.183594 51.59375 C 53.796875 51.222656 55.101562 50.816406 56.039062 50.613281 C 56.980469 50.449219 122.203125 50.328125 201.019531 50.367188 L 344.285156 50.40625 Z M 164.40625 199.144531 C 167.101562 200.53125 171.550781 203.753906 174.488281 206.53125 C 175.632812 207.59375 177.917969 209.671875 179.59375 211.222656 C 187.550781 218.449219 212.652344 245.347656 212.652344 246.652344 C 212.652344 246.777344 211.671875 248.488281 210.449219 250.488281 C 205.632812 258.449219 204.777344 261.144531 204.734375 268.367188 C 204.695312 274.449219 205.753906 278.816406 208.613281 284.695312 C 215.347656 298.53125 231.429688 311.753906 245.59375 315.144531 C 252.328125 316.777344 258.53125 315.59375 260.695312 312.285156 C 261.878906 310.570312 261.960938 307.183594 260.9375 304.039062 C 259.304688 298.9375 253.019531 288.121094 245.796875 277.960938 C 239.144531 268.613281 228.285156 254.488281 223.144531 248.488281 L 221.144531 246.164062 L 224.53125 241.753906 C 230.898438 233.429688 233.796875 230 237.835938 226.082031 C 244.039062 220.039062 249.265625 216.734375 252.613281 216.734375 C 254.082031 216.734375 257.019531 218.898438 263.671875 224.898438 C 280.40625 240 334.734375 293.347656 347.0625 306.734375 L 352.695312 312.855469 L 352.570312 327.144531 C 352.449219 341.101562 352.40625 341.46875 351.511719 343.347656 C 350.449219 345.511719 347.960938 347.917969 345.753906 348.898438 C 344.40625 349.550781 333.304688 349.59375 200.203125 349.59375 C 62.367188 349.59375 56.039062 349.550781 54.203125 348.855469 C 52.039062 348.039062 49.222656 345.222656 48.285156 342.980469 C 47.796875 341.753906 47.671875 339.183594 47.714844 328.285156 L 47.753906 315.0625 L 54.039062 307.222656 C 103.347656 245.835938 142 205.46875 157.753906 198.980469 C 160.898438 197.671875 161.59375 197.714844 164.40625 199.144531 Z M 225.878906 262.652344 C 240.816406 281.550781 252.121094 298.695312 254.488281 306.039062 C 255.386719 308.898438 255.101562 309.183594 251.304688 309.101562 C 247.753906 309.019531 243.960938 307.917969 239.019531 305.46875 C 233.46875 302.695312 229.632812 299.835938 224.246094 294.488281 C 215.304688 285.59375 211.429688 277.671875 211.429688 268.40625 C 211.429688 263.019531 212.246094 260.488281 215.835938 254.53125 L 217.265625 252.121094 L 218.652344 253.714844 C 219.429688 254.570312 222.652344 258.613281 225.878906 262.652344 Z M 225.878906 262.652344 "/>
<path style=" stroke:none;fill-rule:nonzero;fill:rgb(0%,0%,0%);fill-opacity:1;" d="M 193.265625 108.734375 C 186.980469 115.429688 178.488281 132.246094 175.222656 144.367188 C 174.285156 147.753906 174.121094 149.222656 174.121094 154.082031 C 174.121094 159.101562 174.246094 160.082031 175.019531 162 C 177.144531 167.019531 180.613281 170.121094 185.796875 171.632812 C 194.082031 174.039062 212 170.777344 224.695312 164.53125 C 239.222656 157.347656 246.285156 145.714844 242.855469 134.613281 C 240.652344 127.429688 234.488281 121.835938 225.511719 118.816406 C 215.386719 115.429688 207.101562 115.632812 199.183594 119.511719 C 194.898438 121.632812 190.488281 126 188.367188 130.328125 C 187.429688 132.164062 186.9375 133.632812 187.183594 133.835938 C 187.511719 134.121094 192.082031 135.511719 192.734375 135.511719 C 192.855469 135.511719 193.46875 134.449219 194.121094 133.144531 C 196.449219 128.367188 202.082031 124.328125 207.960938 123.222656 C 215.753906 121.753906 227.386719 125.0625 232.652344 130.203125 C 236 133.511719 236.9375 135.632812 236.9375 140.203125 C 236.9375 143.550781 236.816406 144.164062 235.59375 146.652344 C 232 153.960938 221.917969 160.246094 208.285156 163.671875 C 198.652344 166.121094 191.183594 166.652344 186.734375 165.222656 C 184.203125 164.40625 181.46875 161.429688 180.816406 158.777344 C 180.082031 155.671875 180.53125 149.265625 181.796875 144.570312 C 184.328125 135.386719 190.9375 122.039062 196.734375 114.488281 L 198.285156 112.449219 L 197.671875 109.265625 C 197.183594 106.9375 196.855469 106.121094 196.367188 106.121094 C 196 106.121094 194.613281 107.304688 193.265625 108.734375 Z M 193.265625 108.734375 "/>
</g>
</svg>
