<?xml version="1.0" encoding="UTF-8" standalone="no"?>
<svg
   version="1.0"
   width="980.000000pt"
   height="980.000000pt"
   viewBox="0 0 980.000000 980.000000"
   preserveAspectRatio="xMidYMid meet"
   id="svg10"
   sodipodi:docname="ea9e2ccdde06529403a588e4d5516f2b.svg"
   xmlns:inkscape="http://www.inkscape.org/namespaces/inkscape"
   xmlns:sodipodi="http://sodipodi.sourceforge.net/DTD/sodipodi-0.dtd"
   xmlns="http://www.w3.org/2000/svg"
   xmlns:svg="http://www.w3.org/2000/svg">
  <defs
     id="defs14" />
  <sodipodi:namedview
     id="namedview12"
     pagecolor="#ffffff"
     bordercolor="#666666"
     borderopacity="1.0"
     inkscape:pageshadow="2"
     inkscape:pageopacity="0.0"
     inkscape:pagecheckerboard="0"
     inkscape:document-units="pt" />
  <metadata
     id="metadata2">
Created by potrace 1.16, written by Peter Selinger 2001-2019
</metadata>
  <g
     transform="translate(0.000000,980.000000) scale(0.100000,-0.100000)"
     fill="#000000"
     stroke="none"
     id="g8">
    <path
       d="M1305 8706 c-114 -36 -202 -113 -256 -221 l-34 -70 0 -3515 0 -3515 33 -68 c43 -86 113 -156 199 -199 l68 -33 3585 0 3585 0 69 34 c88 43 153 108 197 196 l34 70 0 3515 0 3515 -33 68 c-42 85 -115 158 -201 200 l-66 32 -3570 2 c-2864 1 -3578 -1 -3610 -11z m7177 -164 c53 -26 112 -87 136 -141 16 -33 17 -270 20 -3028 l2 -2992 -676 677 c-745 747 -1030 1021 -1423 1370 -173 154 -237 200 -298 212 -137 29 -316 -60 -518 -257 -110 -107 -263 -282 -340 -386 -39 -53 -72 -96 -75 -96 -3 0 -36 37 -74 82 -140 167 -429 477 -602 647 -264 258 -480 422 -606 461 -57 18 -74 19 -124 10 -133 -25 -305 -131 -549 -340 -224 -192 -695 -674 -1056 -1081 -299 -337 -768 -895 -1013 -1203 -60 -75 -113 -137 -118 -137 -4 0 -7 1356 -6 3013 3 2776 4 3015 20 3048 20 46 83 116 121 135 15 9 47 19 70 24 23 4 1621 7 3552 6 l3510 -1 47 -23z m-4454 -3621 c66 -34 175 -113 247 -181 28 -26 84 -77 125 -115 195 -177 810 -836 810 -868 0 -3 -24 -45 -54 -94 -118 -195 -139 -261 -140 -438 -1 -149 25 -256 95 -400 165 -339 559 -663 906 -746 165 -40 317 -11 370 70 29 42 31 125 6 202 -40 125 -194 390 -371 639 -163 229 -429 575 -555 722 l-49 57 83 108 c156 204 227 288 326 384 152 148 280 229 362 229 36 0 108 -53 271 -200 410 -370 1741 -1677 2043 -2005 l138 -150 -3 -350 c-3 -342 -4 -351 -26 -397 -26 -53 -87 -112 -141 -136 -33 -16 -305 -17 -3566 -17 -3377 0 -3532 1 -3577 18 -53 20 -122 89 -145 144 -12 30 -15 93 -14 360 l1 324 154 192 c1208 1504 2155 2493 2541 2652 77 32 94 31 163 -4z m1506 -1556 c366 -463 643 -883 701 -1063 22 -70 15 -77 -78 -75 -87 2 -180 29 -301 89 -136 68 -230 138 -362 269 -219 218 -314 412 -314 639 0 132 20 194 108 340 l35 59 34 -39 c19 -21 98 -120 177 -219z"
       id="path4" />
    <path
       d="M4735 7136 c-154 -164 -362 -576 -442 -873 -23 -83 -27 -119 -27 -238 0 -123 3 -147 22 -194 52 -123 137 -199 264 -236 203 -59 642 21 953 174 356 176 529 461 445 733 -54 176 -205 313 -425 387 -248 83 -451 78 -645 -17 -105 -52 -213 -159 -265 -265 -23 -45 -35 -81 -29 -86 8 -7 120 -41 136 -41 3 0 18 26 34 58 57 117 195 216 339 243 191 36 476 -45 605 -171 82 -81 105 -133 105 -245 0 -82 -3 -97 -33 -158 -88 -179 -335 -333 -669 -417 -236 -60 -419 -73 -528 -38 -62 20 -129 93 -145 158 -18 76 -7 233 24 348 62 225 224 552 366 737 l38 50 -15 78 c-12 57 -20 77 -32 77 -9 0 -43 -29 -76 -64z"
       id="path6" />
  </g>
</svg>
